<!DOCTYPE svg PUBLIC "-//W3C//DTD SVG 1.1//EN" "http://www.w3.org/Graphics/SVG/1.1/DTD/svg11.dtd">
<!-- Uploaded to: SVG Repo, www.svgrepo.com, Transformed by: SVG Repo Mixer Tools -->
<svg version="1.1" id="Capa_1" xmlns="http://www.w3.org/2000/svg" xmlns:xlink="http://www.w3.org/1999/xlink" viewBox="-5.7 -5.7 68.40 68.40" xml:space="preserve" width="222px" height="222px" fill="#440ae6" stroke="#440ae6" stroke-width="0.5700000000000001" transform="matrix(1, 0, 0, 1, 0, 0)rotate(0)">
<g id="SVGRepo_bgCarrier" stroke-width="0" transform="translate(0,0), scale(1)">
<path transform="translate(-5.7, -5.7), scale(4.275)" fill="#66d1f5" d="M9.166.33a2.25 2.25 0 00-2.332 0l-5.25 3.182A2.25 2.25 0 00.5 5.436v5.128a2.25 2.25 0 001.084 1.924l5.25 3.182a2.25 2.25 0 002.332 0l5.25-3.182a2.25 2.25 0 001.084-1.924V5.436a2.25 2.25 0 00-1.084-1.924L9.166.33z" strokewidth="0"/>
</g>
<g id="SVGRepo_tracerCarrier" stroke-linecap="round" stroke-linejoin="round" stroke="#CCCCCC" stroke-width="0.45600000000000007"/>
<g id="SVGRepo_iconCarrier"> <rect x="0" y="0" style="fill:#0c0047;" width="57" height="57"/> <path style="fill:#59ff00;" d="M20,44c-0.256,0-0.512-0.098-0.707-0.293L4.586,29l14.707-14.707c0.391-0.391,1.023-0.391,1.414,0 s0.391,1.023,0,1.414L7.414,29l13.293,13.293c0.391,0.391,0.391,1.023,0,1.414C20.512,43.902,20.256,44,20,44z"/> <path style="fill:#59ff00;" d="M37,44c-0.256,0-0.512-0.098-0.707-0.293c-0.391-0.391-0.391-1.023,0-1.414L49.586,29L36.293,15.707 c-0.391-0.391-0.391-1.023,0-1.414s1.023-0.391,1.414,0L52.414,29L37.707,43.707C37.512,43.902,37.256,44,37,44z"/> <path style="fill:#59ff00;" d="M24.001,50c-0.071,0-0.144-0.008-0.216-0.023c-0.539-0.118-0.88-0.651-0.762-1.191l9-41 c0.118-0.539,0.654-0.88,1.191-0.762c0.539,0.118,0.88,0.651,0.762,1.191l-9,41C24.874,49.682,24.46,50,24.001,50z"/> </g>
</svg>